<svg width="696" height="814" viewBox="0 0 696 814" fill="none" xmlns="http://www.w3.org/2000/svg">
<path fill-rule="evenodd" clip-rule="evenodd" d="M479.866 109.189C549.014 125.174 635.238 115.508 673.075 179.354C712.584 246.023 690.816 347.884 675.431 439.189C658.305 540.825 653.434 660.274 579.747 733.214C506.179 806.036 410.818 775.477 323.826 787.231C249.873 797.222 167.716 834.614 109.962 796.686C53.2879 759.468 31.5016 675.946 29.5477 593.976C27.8938 524.591 100.775 457.04 100.204 387.349C99.1474 258.217 -57.6376 149.12 24.9963 37.919C102.568 -66.4707 215.254 81.0296 316.09 96.8288C370.857 105.41 426.336 96.814 479.866 109.189Z" fill="#794BFD"/>
</svg>
